<svg width="20" height="19" viewBox="0 0 20 19" fill="none" xmlns="http://www.w3.org/2000/svg">
<path d="M12.45 4.65625H3.75C3.33578 4.65625 3 4.32047 3 3.90625C3 3.49203 3.33578 3.15625 3.75 3.15625H12.45C12.8642 3.15625 13.2 3.49203 13.2 3.90625C13.2 4.32047 12.8642 4.65625 12.45 4.65625Z" fill="white"/>
<path d="M3.75 9.15625C4.16421 9.15625 4.5 8.82046 4.5 8.40625C4.5 7.99204 4.16421 7.65625 3.75 7.65625C3.33579 7.65625 3 7.99204 3 8.40625C3 8.82046 3.33579 9.15625 3.75 9.15625Z" fill="white"/>
<path d="M15.45 15.1562C15.8642 15.1562 16.2 14.8205 16.2 14.4062C16.2 13.992 15.8642 13.6562 15.45 13.6562C15.0358 13.6562 14.7 13.992 14.7 14.4062C14.7 14.8205 15.0358 15.1562 15.45 15.1562Z" fill="white"/>
<path d="M12.45 12.1562H3.75C1.68225 12.1562 0 10.474 0 8.40625V3.90625C0 1.8385 1.68225 0.15625 3.75 0.15625H12.45C14.5178 0.15625 16.2 1.8385 16.2 3.90625V8.40625C16.2 10.474 14.5178 12.1562 12.45 12.1562ZM3.75 1.65625C2.50935 1.65625 1.5 2.6656 1.5 3.90625V8.40625C1.5 9.6469 2.50935 10.6562 3.75 10.6562H12.45C13.6907 10.6562 14.7 9.6469 14.7 8.40625V3.90625C14.7 2.6656 13.6907 1.65625 12.45 1.65625H3.75Z" fill="white"/>
<path d="M15.45 18.1562H6.75C4.68225 18.1562 3 16.474 3 14.4062C3 13.992 3.33578 13.6562 3.75 13.6562C4.16422 13.6562 4.5 13.992 4.5 14.4062C4.5 15.6469 5.50935 16.6562 6.75 16.6562H15.45C16.6907 16.6562 17.7 15.6469 17.7 14.4062V9.90622C17.7 9.74894 17.6838 9.59204 17.6518 9.4399C17.5665 9.03457 17.826 8.63684 18.2314 8.5516C18.6368 8.46637 19.0344 8.72587 19.1197 9.1312C19.173 9.38467 19.2 9.6454 19.2 9.90622V14.4062C19.2 16.474 17.5178 18.1562 15.45 18.1562Z" fill="white"/>
</svg>
