<svg width="16" height="16" viewBox="0 0 16 16" fill="none" xmlns="http://www.w3.org/2000/svg">
<path d="M8 0C3.57841 0 0 3.578 0 8C0 12.4215 3.578 16 8 16C12.4216 16 16 12.422 16 8C16 3.57847 12.422 0 8 0ZM8 14.8837C4.20431 14.8837 1.11628 11.7957 1.11628 8C1.11628 4.20428 4.20431 1.11628 8 1.11628C11.7957 1.11628 14.8837 4.20428 14.8837 8C14.8837 11.7957 11.7957 14.8837 8 14.8837Z" fill="#39B6FF"/>
<path d="M8.00017 6.6687C7.5263 6.6687 7.18933 6.86883 7.18933 7.16367V11.1757C7.18933 11.4285 7.5263 11.6812 8.00017 11.6812C8.45299 11.6812 8.82152 11.4285 8.82152 11.1757V7.16361C8.82152 6.86879 8.45299 6.6687 8.00017 6.6687Z" fill="#39B6FF"/>
<path d="M8.00019 4.19385C7.51578 4.19385 7.13672 4.54135 7.13672 4.9415C7.13672 5.34169 7.51581 5.69972 8.00019 5.69972C8.47406 5.69972 8.85319 5.34169 8.85319 4.9415C8.85319 4.54135 8.47403 4.19385 8.00019 4.19385Z" fill="#39B6FF"/>
</svg>
