<svg width="20" height="20" viewBox="0 0 20 20" fill="none" xmlns="http://www.w3.org/2000/svg">
<path d="M7.93745 7.00005H2.31245C1.58873 7.00005 1 6.41132 1 5.68745V2.31245C1 1.58873 1.58873 1 2.31245 1H7.93745C8.66132 1 9.25005 1.58873 9.25005 2.31245V5.68745C9.25005 6.41132 8.66132 7.00005 7.93745 7.00005ZM2.31245 2.125C2.20905 2.125 2.125 2.20905 2.125 2.31245V5.68745C2.125 5.791 2.20905 5.87505 2.31245 5.87505H7.93745C8.041 5.87505 8.12505 5.791 8.12505 5.68745V2.31245C8.12505 2.20905 8.041 2.125 7.93745 2.125H2.31245Z" fill="white" stroke="white" stroke-width="0.5"/>
<path d="M7.93745 19H2.31245C1.58873 19 1 18.4113 1 17.6876V9.81259C1 9.08873 1.58873 8.5 2.31245 8.5H7.93745C8.66132 8.5 9.25005 9.08873 9.25005 9.81259V17.6876C9.25005 18.4113 8.66132 19 7.93745 19ZM2.31245 9.625C2.20905 9.625 2.125 9.70905 2.125 9.81259V17.6876C2.125 17.791 2.20905 17.875 2.31245 17.875H7.93745C8.041 17.875 8.12505 17.791 8.12505 17.6876V9.81259C8.12505 9.70905 8.041 9.625 7.93745 9.625H2.31245Z" fill="white" stroke="white" stroke-width="0.5"/>
<path d="M17.6875 19H12.0625C11.3387 19 10.7499 18.4113 10.7499 17.6876V14.3126C10.7499 13.5887 11.3387 13 12.0625 13H17.6875C18.4113 13 19 13.5887 19 14.3126V17.6876C19 18.4113 18.4113 19 17.6875 19ZM12.0625 14.125C11.959 14.125 11.8749 14.209 11.8749 14.3126V17.6876C11.8749 17.791 11.959 17.875 12.0625 17.875H17.6875C17.7909 17.875 17.875 17.791 17.875 17.6876V14.3126C17.875 14.209 17.7909 14.125 17.6875 14.125H12.0625Z" fill="white" stroke="white" stroke-width="0.5"/>
<path d="M17.6875 11.5H12.0625C11.3387 11.5 10.7499 10.9113 10.7499 10.1875V2.31245C10.7499 1.58873 11.3387 1 12.0625 1H17.6875C18.4113 1 19 1.58873 19 2.31245V10.1875C19 10.9113 18.4113 11.5 17.6875 11.5ZM12.0625 2.125C11.959 2.125 11.8749 2.20905 11.8749 2.31245V10.1875C11.8749 10.291 11.959 10.375 12.0625 10.375H17.6875C17.7909 10.375 17.875 10.291 17.875 10.1875V2.31245C17.875 2.20905 17.7909 2.125 17.6875 2.125H12.0625Z" fill="white" stroke="white" stroke-width="0.5"/>
</svg>
