<svg width="17" height="19" viewBox="0 0 17 19" fill="none" xmlns="http://www.w3.org/2000/svg">
<path fill-rule="evenodd" clip-rule="evenodd" d="M10.5538 4.6731C10.5538 3.52161 11.4944 2.59619 12.6307 2.59619H14.4861C15.6346 2.59619 16.563 3.52461 16.563 4.6731V11.1439C16.563 12.2954 15.6224 13.2208 14.4861 13.2208H12.6307C11.4822 13.2208 10.5538 12.2924 10.5538 11.1439V4.6731ZM12.6307 3.98081C12.2531 3.98081 11.9384 4.29233 11.9384 4.6731V11.1439C11.9384 11.5277 12.2469 11.8362 12.6307 11.8362H14.4861C14.8636 11.8362 15.1784 11.5247 15.1784 11.1439V4.6731C15.1784 4.28934 14.8699 3.98081 14.4861 3.98081H12.6307Z" fill="white"/>
<path fill-rule="evenodd" clip-rule="evenodd" d="M0.399963 8.36538C0.399963 7.21387 1.34062 6.28845 2.47689 6.28845H4.33229C5.4808 6.28845 6.40922 7.21686 6.40922 8.36538V14.8361C6.40922 15.9877 5.46856 16.913 4.33229 16.913H2.47689C1.32838 16.913 0.399963 15.9846 0.399963 14.8361V8.36538ZM2.47689 7.67307C2.09931 7.67307 1.78458 7.98455 1.78458 8.36538V14.8361C1.78458 15.2199 2.09309 15.5284 2.47689 15.5284H4.33229C4.70985 15.5284 5.0246 15.217 5.0246 14.8361V8.36538C5.0246 7.98156 4.71611 7.67307 4.33229 7.67307H2.47689Z" fill="white"/>
<path fill-rule="evenodd" clip-rule="evenodd" d="M3.40922 15.5193C3.7916 15.5193 4.10153 15.8292 4.10153 16.2116V18.0577C4.10153 18.4401 3.7916 18.75 3.40922 18.75C3.0269 18.75 2.71692 18.4401 2.71692 18.0577V16.2116C2.71692 15.8292 3.0269 15.5193 3.40922 15.5193Z" fill="white"/>
<path fill-rule="evenodd" clip-rule="evenodd" d="M3.40922 0.75C3.7916 0.75 4.10153 1.05995 4.10153 1.44231V6.98077C4.10153 7.36314 3.7916 7.67308 3.40922 7.67308C3.0269 7.67308 2.71692 7.36314 2.71692 6.98077V1.44231C2.71692 1.05995 3.0269 0.75 3.40922 0.75Z" fill="white"/>
<path fill-rule="evenodd" clip-rule="evenodd" d="M13.563 11.8269C13.9454 11.8269 14.2553 12.1368 14.2553 12.5192V18.0577C14.2553 18.44 13.9454 18.75 13.563 18.75C13.1807 18.75 12.8707 18.44 12.8707 18.0577V12.5192C12.8707 12.1368 13.1807 11.8269 13.563 11.8269Z" fill="white"/>
<path fill-rule="evenodd" clip-rule="evenodd" d="M13.563 0.75C13.9454 0.75 14.2553 1.05995 14.2553 1.44231V3.28846C14.2553 3.67081 13.9454 3.98077 13.563 3.98077C13.1807 3.98077 12.8707 3.67081 12.8707 3.28846V1.44231C12.8707 1.05995 13.1807 0.75 13.563 0.75Z" fill="white"/>
</svg>
