<svg width="14" height="20" viewBox="0 0 14 20" fill="none" xmlns="http://www.w3.org/2000/svg">
<path d="M9.7245 6.41926C9.81891 6.32043 9.94694 6.26491 10.0804 6.26491C10.2139 6.26491 10.3419 6.32043 10.4363 6.41926L11.2801 7.30297L11.929 2.139L6.99865 2.81867L7.84238 3.70245C7.88913 3.7514 7.92621 3.80952 7.9515 3.87348C7.9768 3.93745 7.98982 4.006 7.98982 4.07524C7.98982 4.14447 7.9768 4.21303 7.9515 4.27699C7.92621 4.34096 7.88913 4.39907 7.84238 4.44803L4.05201 8.41798L5.1285 9.54544C5.22235 9.64443 5.27492 9.77834 5.27469 9.91785C5.27446 10.0574 5.22145 10.1911 5.12727 10.2897C5.03309 10.3884 4.90542 10.4439 4.77223 10.4442C4.63903 10.4444 4.51117 10.3894 4.41665 10.2911L2.98424 8.79081C2.88984 8.69193 2.8368 8.55782 2.8368 8.41798C2.8368 8.27815 2.88984 8.14404 2.98424 8.04516L6.77463 4.07521L5.56506 2.80823C5.49864 2.73865 5.45214 2.65099 5.43081 2.55517C5.40948 2.45934 5.41418 2.35918 5.44438 2.26601C5.47458 2.17284 5.52907 2.09038 5.60168 2.02795C5.6743 1.96553 5.76214 1.92564 5.85528 1.91279L12.448 1.0039C12.5245 0.993345 12.6024 1.00137 12.6755 1.02737C12.7486 1.05336 12.815 1.09662 12.8696 1.1538C12.9242 1.21098 12.9655 1.28055 12.9903 1.35712C13.0151 1.43369 13.0228 1.51522 13.0127 1.59539L12.145 8.50051C12.1327 8.59808 12.0946 8.69011 12.035 8.76618C11.9755 8.84226 11.8967 8.89935 11.8077 8.93099C11.7188 8.96263 11.6231 8.96755 11.5316 8.94521C11.4401 8.92287 11.3564 8.87415 11.29 8.80456L10.0804 7.53764L4.30956 13.5795C4.21514 13.6783 4.08712 13.7339 3.95364 13.7339C3.82015 13.7339 3.69213 13.6783 3.59771 13.5795L2.75402 12.6958L2.10502 17.8598L7.03541 17.18L6.19168 16.2964C6.09728 16.1975 6.04425 16.0634 6.04425 15.9236C6.04425 15.7837 6.09728 15.6496 6.19168 15.5507L9.9821 11.5808L8.90488 10.4525C8.85797 10.4035 8.82073 10.3454 8.7953 10.2814C8.76986 10.2174 8.75673 10.1488 8.75666 10.0794C8.75659 10.0101 8.76957 9.94143 8.79487 9.87736C8.82017 9.81329 8.85729 9.75508 8.9041 9.70606C8.95091 9.65704 9.00649 9.61817 9.06766 9.59167C9.12884 9.56518 9.1944 9.55159 9.26059 9.55167C9.32679 9.55175 9.39232 9.56551 9.45343 9.59216C9.51454 9.6188 9.57003 9.65781 9.61673 9.70695L11.0499 11.208C11.0966 11.257 11.1337 11.3151 11.159 11.3791C11.1843 11.443 11.1973 11.5116 11.1973 11.5808C11.1973 11.6501 11.1843 11.7186 11.159 11.7826C11.1337 11.8465 11.0966 11.9047 11.0499 11.9536L7.25945 15.9236L8.46904 17.1904C8.53547 17.26 8.58199 17.3476 8.60332 17.4435C8.62465 17.5393 8.61995 17.6395 8.58975 17.7326C8.55956 17.8258 8.50506 17.9083 8.43244 17.9707C8.35981 18.0332 8.27196 18.0731 8.17881 18.0859L1.58607 18.9949C1.50952 19.0054 1.43168 18.9974 1.35857 18.9714C1.28546 18.9454 1.21904 18.9022 1.16445 18.845C1.10985 18.7878 1.06855 18.7182 1.04374 18.6417C1.01892 18.5651 1.01126 18.4836 1.02134 18.4034L1.8891 11.4983C1.90134 11.4007 1.93942 11.3087 1.99901 11.2326C2.05861 11.1565 2.13734 11.0994 2.22631 11.0678C2.31527 11.0362 2.41092 11.0312 2.50242 11.0536C2.59392 11.0759 2.67762 11.1246 2.74406 11.1942L3.95361 12.4611L9.7245 6.41926Z" fill="white" stroke="white" stroke-width="0.4"/>
</svg>
