<svg width="18" height="20" viewBox="0 0 18 20" fill="none" xmlns="http://www.w3.org/2000/svg">
<path d="M3.00954 19C2.65342 19 2.32273 18.9163 2.02597 18.7488C1.37308 18.3721 1 17.6102 1 16.6642V4.85953C1 2.73302 2.75516 1 4.90884 1H13.0912C15.2448 1 17 2.73302 17 4.85953V16.6558C17 17.6019 16.6269 18.3637 15.974 18.7405C15.3211 19.1172 14.4648 19.0753 13.6253 18.6149L9.48756 16.346C9.24167 16.2121 8.75836 16.2121 8.51247 16.346L4.37466 18.6149C3.91679 18.866 3.45045 19 3.00954 19ZM4.91732 2.25581C3.4674 2.25581 2.28034 3.42791 2.28034 4.85953V16.6558C2.28034 17.1498 2.42448 17.5181 2.67885 17.6605C2.93322 17.8028 3.33174 17.7609 3.76417 17.5181L7.90198 15.2493C8.52943 14.906 9.47908 14.906 10.1065 15.2493L14.2443 17.5181C14.6767 17.7609 15.0753 17.8112 15.3296 17.6605C15.584 17.5098 15.7281 17.1414 15.7281 16.6558V4.85953C15.7281 3.42791 14.5411 2.25581 13.0912 2.25581H4.91732Z" fill="white" stroke="white" stroke-width="0.4"/>
<path d="M8.23321 11.0464C8.0721 11.0464 7.911 10.9878 7.78382 10.8622L6.51193 9.60637C6.26604 9.36358 6.26604 8.96172 6.51193 8.71893C6.75783 8.47614 7.16482 8.47614 7.41074 8.71893L8.23321 9.53102L11.1754 6.62594C11.4213 6.38315 11.8283 6.38315 12.0742 6.62594C12.3201 6.86873 12.3201 7.27059 12.0742 7.51338L8.6826 10.8622C8.55541 10.9878 8.39431 11.0464 8.23321 11.0464Z" fill="white" stroke="white" stroke-width="0.4"/>
</svg>
